# xmcd
#
# Track frame offsets: 
#        150
#        23532
#        43040
#        70620
#        92637
#        109850
#        129227
#        160017
#        182922
#        199260
#        215292
#        235245
#
# Disc length: 3789 seconds
#
# Revision: 4
# Processed by: cddbd v1.5.2PL0 Copyright (c) Steve Scherf et al.
# Submitted via: ExactAudioCopyFreeDBPlugin 1.0
#
DISCID=980ecb0c
DTITLE=BERNARD ALLISON GROUP - Hang On!
DYEAR=1993
DGENRE=Blues
TTITLE0=Maï
TTITLE1=Going Down
TTITLE2=Cadillac Assembly Line
TTITLE3=Voodoo Thang
TTITLE4=Missing Stevie
TTITLE5=Action Speaks Louder Than Words
TTITLE6=Rockin Robin
TTITLE7=You're Hurting Me
TTITLE8=Hang On
TTITLE9=Looking Beyond The Past
TTITLE10=Idols In Mind
TTITLE11=Voodoo Chile Medley
EXTD=YEAR: 1993 ID3G: 0
EXTT0=
EXTT1=
EXTT2=
EXTT3=
EXTT4=
EXTT5=
EXTT6=
EXTT7=
EXTT8=
EXTT9=
EXTT10=
EXTT11=
PLAYORDER=
